<svg width="104" height="81" viewBox="0 0 104 81" fill="none" xmlns="http://www.w3.org/2000/svg">
<path d="M104 0C99.944 2.34379 91.806 5.53803 87.022 6.45935C86.8816 6.49478 86.7672 6.54034 86.632 6.57578C82.4044 2.5159 76.6116 0 70.2 0C57.278 0 46.8 10.2003 46.8 22.7798C46.8 23.443 46.7428 24.663 46.8 25.3109C29.3644 25.3109 16.094 16.4217 6.578 5.06218C5.5432 7.59328 5.0908 11.5924 5.0908 15.3485C5.0908 22.4407 10.7848 29.4062 19.6508 33.7243C18.018 34.1343 16.2188 34.4279 14.3468 34.4279C11.3256 34.4279 8.1276 33.6534 5.2 31.3045C5.2 31.3906 5.2 31.4716 5.2 31.5627C5.2 41.4745 16.0056 48.2224 25.6152 50.1004C23.6652 51.2192 19.734 51.3305 17.8152 51.3305C16.4632 51.3305 11.6792 50.7281 10.4 50.4953C13.0728 58.6201 22.7136 63.1862 31.902 63.3482C24.7156 68.8356 19.7288 70.8706 5.0128 70.8706H0C9.2976 76.6718 21.138 81 33.0044 81C71.6404 81 93.6 52.3329 93.6 25.3109C93.6 24.8756 93.5896 23.9644 93.574 23.0481C93.574 22.957 93.6 22.8709 93.6 22.7798C93.6 22.6431 93.5584 22.5115 93.5584 22.3749C93.5428 21.6864 93.5272 21.0435 93.5116 20.7094C97.6196 17.8239 101.182 14.2247 104 10.1244C100.23 11.7544 96.1844 12.8478 91.936 13.3439C96.2728 10.8128 102.435 4.7787 104 0Z" fill="#7DD3FF"/>
</svg>
